<svg width="292" height="21" viewBox="0 0 292 21" fill="none" xmlns="http://www.w3.org/2000/svg">
<path d="M10.536 7.68L7.032 17.28H2.352L10.536 0.36L18.696 17.28H14.016L10.536 7.68ZM16.056 18H4.992V20.64H0.96V14.52H20.088V20.64H16.056V18ZM25.5495 9.6C25.5495 10.592 25.7415 11.472 26.1255 12.24C26.5255 12.992 27.0775 13.584 27.7815 14.016C28.5015 14.448 29.3415 14.664 30.3015 14.664C31.2455 14.664 32.0695 14.448 32.7735 14.016C33.4935 13.584 34.0455 12.992 34.4295 12.24C34.8295 11.472 35.0295 10.592 35.0295 9.6C35.0295 8.608 34.8375 7.736 34.4535 6.984C34.0695 6.216 33.5255 5.616 32.8215 5.184C32.1175 4.752 31.2775 4.536 30.3015 4.536C29.3415 4.536 28.5015 4.752 27.7815 5.184C27.0775 5.616 26.5255 6.216 26.1255 6.984C25.7415 7.736 25.5495 8.608 25.5495 9.6ZM21.2535 9.6C21.2535 8.304 21.4775 7.12 21.9255 6.048C22.3895 4.976 23.0295 4.048 23.8455 3.264C24.6615 2.48 25.6215 1.88 26.7255 1.464C27.8295 1.032 29.0215 0.816 30.3015 0.816C31.5975 0.816 32.7895 1.032 33.8775 1.464C34.9815 1.88 35.9415 2.48 36.7575 3.264C37.5735 4.048 38.2055 4.976 38.6535 6.048C39.1015 7.12 39.3255 8.304 39.3255 9.6C39.3255 10.896 39.1015 12.088 38.6535 13.176C38.2215 14.264 37.5975 15.208 36.7815 16.008C35.9815 16.808 35.0295 17.432 33.9255 17.88C32.8215 18.312 31.6135 18.528 30.3015 18.528C28.9735 18.528 27.7575 18.312 26.6535 17.88C25.5495 17.432 24.5895 16.808 23.7735 16.008C22.9735 15.208 22.3495 14.264 21.9015 13.176C21.4695 12.088 21.2535 10.896 21.2535 9.6ZM41.9244 1.2H46.1244V18H41.9244V1.2ZM51.8364 1.2H56.5884L49.7724 9.072L56.9484 18H52.0284L44.9484 9.192L51.8364 1.2ZM57.7523 4.824V1.2H71.0483V4.824H66.4163V18H62.3603V4.824H57.7523ZM75.0261 9.6C75.0261 10.592 75.2181 11.472 75.6021 12.24C76.0021 12.992 76.5541 13.584 77.2581 14.016C77.9781 14.448 78.8181 14.664 79.7781 14.664C80.7221 14.664 81.5461 14.448 82.2501 14.016C82.9701 13.584 83.5221 12.992 83.9061 12.24C84.3061 11.472 84.5061 10.592 84.5061 9.6C84.5061 8.608 84.3141 7.736 83.9301 6.984C83.5461 6.216 83.0021 5.616 82.2981 5.184C81.5941 4.752 80.7541 4.536 79.7781 4.536C78.8181 4.536 77.9781 4.752 77.2581 5.184C76.5541 5.616 76.0021 6.216 75.6021 6.984C75.2181 7.736 75.0261 8.608 75.0261 9.6ZM70.7301 9.6C70.7301 8.304 70.9541 7.12 71.4021 6.048C71.8661 4.976 72.5061 4.048 73.3221 3.264C74.1381 2.48 75.0981 1.88 76.2021 1.464C77.3061 1.032 78.4981 0.816 79.7781 0.816C81.0741 0.816 82.2661 1.032 83.3541 1.464C84.4581 1.88 85.4181 2.48 86.2341 3.264C87.0501 4.048 87.6821 4.976 88.1301 6.048C88.5781 7.12 88.8021 8.304 88.8021 9.6C88.8021 10.896 88.5781 12.088 88.1301 13.176C87.6981 14.264 87.0741 15.208 86.2581 16.008C85.4581 16.808 84.5061 17.432 83.4021 17.88C82.2981 18.312 81.0901 18.528 79.7781 18.528C78.4501 18.528 77.2341 18.312 76.1301 17.88C75.0261 17.432 74.0661 16.808 73.2501 16.008C72.4501 15.208 71.8261 14.264 71.3781 13.176C70.9461 12.088 70.7301 10.896 70.7301 9.6ZM91.401 1.2H95.457V18H91.401V1.2ZM93.945 4.536V1.2H97.233C98.657 1.2 99.849 1.424 100.809 1.872C101.785 2.304 102.521 2.928 103.017 3.744C103.513 4.56 103.761 5.544 103.761 6.696C103.761 7.816 103.513 8.792 103.017 9.624C102.521 10.44 101.785 11.072 100.809 11.52C99.849 11.952 98.657 12.168 97.233 12.168H93.945V8.832H97.233C98.049 8.832 98.689 8.648 99.153 8.28C99.617 7.912 99.849 7.384 99.849 6.696C99.849 5.992 99.617 5.456 99.153 5.088C98.689 4.72 98.049 4.536 97.233 4.536H93.945ZM116.885 9.6C116.885 10.592 117.077 11.472 117.461 12.24C117.861 12.992 118.413 13.584 119.117 14.016C119.837 14.448 120.677 14.664 121.637 14.664C122.581 14.664 123.405 14.448 124.109 14.016C124.829 13.584 125.381 12.992 125.765 12.24C126.165 11.472 126.365 10.592 126.365 9.6C126.365 8.608 126.173 7.736 125.789 6.984C125.405 6.216 124.861 5.616 124.157 5.184C123.453 4.752 122.613 4.536 121.637 4.536C120.677 4.536 119.837 4.752 119.117 5.184C118.413 5.616 117.861 6.216 117.461 6.984C117.077 7.736 116.885 8.608 116.885 9.6ZM112.589 9.6C112.589 8.304 112.813 7.12 113.261 6.048C113.725 4.976 114.365 4.048 115.181 3.264C115.997 2.48 116.957 1.88 118.061 1.464C119.165 1.032 120.357 0.816 121.637 0.816C122.933 0.816 124.125 1.032 125.213 1.464C126.317 1.88 127.277 2.48 128.093 3.264C128.909 4.048 129.541 4.976 129.989 6.048C130.437 7.12 130.661 8.304 130.661 9.6C130.661 10.896 130.437 12.088 129.989 13.176C129.557 14.264 128.933 15.208 128.117 16.008C127.317 16.808 126.365 17.432 125.261 17.88C124.157 18.312 122.949 18.528 121.637 18.528C120.309 18.528 119.093 18.312 117.989 17.88C116.885 17.432 115.925 16.808 115.109 16.008C114.309 15.208 113.685 14.264 113.237 13.176C112.805 12.088 112.589 10.896 112.589 9.6ZM148.044 1.2V18H143.916V4.824H138.348V10.896C138.348 12.464 138.116 13.784 137.652 14.856C137.204 15.912 136.492 16.704 135.516 17.232C134.54 17.744 133.276 18 131.724 18V14.568C132.124 14.568 132.476 14.488 132.78 14.328C133.1 14.168 133.364 13.944 133.572 13.656C133.796 13.352 133.964 12.984 134.076 12.552C134.188 12.12 134.244 11.648 134.244 11.136V1.2H148.044ZM167.113 5.424L151.729 18.84L151.849 13.776L167.233 0.36L167.113 5.424ZM155.617 1.2V14.856L151.729 18.84V1.2H155.617ZM167.233 0.36V18H163.321V4.488L167.233 0.36ZM178.584 10.392L173.856 18H169.104L174.36 10.392H178.584ZM182.76 1.2V18H178.704V1.2H182.76ZM180.216 4.632H176.928C176.4 4.632 175.936 4.72 175.536 4.896C175.136 5.072 174.832 5.328 174.624 5.664C174.416 5.984 174.312 6.376 174.312 6.84C174.312 7.304 174.416 7.704 174.624 8.04C174.832 8.36 175.136 8.608 175.536 8.784C175.936 8.944 176.4 9.024 176.928 9.024H180.216V12.168H176.64C175.216 12.168 174.016 11.936 173.04 11.472C172.08 11.008 171.352 10.368 170.856 9.552C170.36 8.72 170.112 7.768 170.112 6.696C170.112 5.608 170.36 4.656 170.856 3.84C171.352 3.008 172.08 2.36 173.04 1.896C174.016 1.432 175.216 1.2 176.64 1.2H180.216V4.632ZM199.062 9.864V8.04C199.846 8.04 200.494 7.952 201.006 7.776C201.534 7.6 201.926 7.352 202.182 7.032C202.454 6.712 202.59 6.352 202.59 5.952C202.59 5.584 202.494 5.264 202.302 4.992C202.11 4.72 201.83 4.512 201.462 4.368C201.094 4.208 200.638 4.128 200.094 4.128C199.534 4.128 199.046 4.216 198.63 4.392C198.214 4.552 197.894 4.784 197.67 5.088C197.446 5.376 197.334 5.72 197.334 6.12H193.614C193.614 5.128 193.862 4.24 194.358 3.456C194.854 2.656 195.582 2.032 196.542 1.584C197.518 1.12 198.71 0.887999 200.118 0.887999C201.526 0.887999 202.71 1.096 203.67 1.512C204.63 1.928 205.358 2.488 205.854 3.192C206.35 3.896 206.598 4.68 206.598 5.544C206.598 6.264 206.398 6.896 205.998 7.44C205.614 7.984 205.078 8.44 204.39 8.808C203.702 9.16 202.902 9.424 201.99 9.6C201.078 9.776 200.102 9.864 199.062 9.864ZM200.214 18.384C198.95 18.384 197.854 18.232 196.926 17.928C196.014 17.624 195.254 17.2 194.646 16.656C194.054 16.112 193.614 15.496 193.326 14.808C193.038 14.12 192.894 13.408 192.894 12.672H196.878C196.91 13.216 197.062 13.672 197.334 14.04C197.606 14.408 197.982 14.68 198.462 14.856C198.942 15.032 199.478 15.12 200.07 15.12C200.982 15.12 201.71 14.952 202.254 14.616C202.798 14.28 203.07 13.752 203.07 13.032C203.07 12.552 202.926 12.136 202.638 11.784C202.35 11.432 201.91 11.16 201.318 10.968C200.742 10.76 199.99 10.656 199.062 10.656V8.592C200.598 8.592 201.966 8.76 203.166 9.096C204.382 9.416 205.334 9.936 206.022 10.656C206.726 11.36 207.078 12.28 207.078 13.416C207.078 14.392 206.822 15.256 206.31 16.008C205.798 16.744 205.03 17.328 204.006 17.76C202.998 18.176 201.734 18.384 200.214 18.384ZM222.47 1.2L214.574 18H210.422L212.702 12.888L207.206 1.2H211.742L215.534 11.208L213.782 11.184L218.246 1.2H222.47ZM225.306 10.8V7.536H231.714C232.802 7.536 233.77 7.76 234.618 8.208C235.482 8.64 236.162 9.248 236.658 10.032C237.17 10.8 237.426 11.704 237.426 12.744C237.426 13.768 237.17 14.68 236.658 15.48C236.162 16.264 235.482 16.88 234.618 17.328C233.77 17.776 232.802 18 231.714 18H225.306V14.664H230.826C231.354 14.664 231.802 14.6 232.17 14.472C232.538 14.328 232.818 14.112 233.01 13.824C233.202 13.536 233.298 13.176 233.298 12.744C233.298 12.296 233.202 11.936 233.01 11.664C232.818 11.376 232.538 11.16 232.17 11.016C231.802 10.872 231.354 10.8 230.826 10.8H225.306ZM224.178 1.2H236.154V4.536H228.306V18H224.178V1.2ZM243.495 9.6C243.495 10.592 243.687 11.472 244.071 12.24C244.471 12.992 245.023 13.584 245.727 14.016C246.447 14.448 247.287 14.664 248.247 14.664C249.191 14.664 250.015 14.448 250.719 14.016C251.439 13.584 251.991 12.992 252.375 12.24C252.775 11.472 252.975 10.592 252.975 9.6C252.975 8.608 252.783 7.736 252.399 6.984C252.015 6.216 251.471 5.616 250.767 5.184C250.063 4.752 249.223 4.536 248.247 4.536C247.287 4.536 246.447 4.752 245.727 5.184C245.023 5.616 244.471 6.216 244.071 6.984C243.687 7.736 243.495 8.608 243.495 9.6ZM239.199 9.6C239.199 8.304 239.423 7.12 239.871 6.048C240.335 4.976 240.975 4.048 241.791 3.264C242.607 2.48 243.567 1.88 244.671 1.464C245.775 1.032 246.967 0.816 248.247 0.816C249.543 0.816 250.735 1.032 251.823 1.464C252.927 1.88 253.887 2.48 254.703 3.264C255.519 4.048 256.151 4.976 256.599 6.048C257.047 7.12 257.271 8.304 257.271 9.6C257.271 10.896 257.047 12.088 256.599 13.176C256.167 14.264 255.543 15.208 254.727 16.008C253.927 16.808 252.975 17.432 251.871 17.88C250.767 18.312 249.559 18.528 248.247 18.528C246.919 18.528 245.703 18.312 244.599 17.88C243.495 17.432 242.535 16.808 241.719 16.008C240.919 15.208 240.295 14.264 239.847 13.176C239.415 12.088 239.199 10.896 239.199 9.6ZM262.894 9.648V7.872H265.606C266.07 7.872 266.462 7.8 266.782 7.656C267.118 7.512 267.374 7.312 267.55 7.056C267.726 6.784 267.814 6.456 267.814 6.072C267.814 5.496 267.622 5.064 267.238 4.776C266.854 4.488 266.31 4.344 265.606 4.344H263.926V14.856H265.99C266.518 14.856 266.99 14.792 267.406 14.664C267.822 14.52 268.15 14.296 268.39 13.992C268.646 13.672 268.774 13.24 268.774 12.696C268.774 12.344 268.702 12.04 268.558 11.784C268.414 11.528 268.214 11.32 267.958 11.16C267.702 11 267.406 10.888 267.07 10.824C266.75 10.744 266.39 10.704 265.99 10.704H262.894V8.496H266.446C267.262 8.496 268.054 8.584 268.822 8.76C269.59 8.936 270.286 9.224 270.91 9.624C271.534 10.008 272.03 10.504 272.398 11.112C272.782 11.704 272.974 12.424 272.974 13.272C272.974 14.392 272.702 15.296 272.158 15.984C271.63 16.672 270.878 17.184 269.902 17.52C268.926 17.84 267.774 18 266.446 18H259.87V1.2H266.038C267.206 1.2 268.23 1.36 269.11 1.68C270.006 1.984 270.71 2.456 271.222 3.096C271.75 3.72 272.014 4.512 272.014 5.472C272.014 6.352 271.75 7.104 271.222 7.728C270.71 8.352 270.006 8.832 269.11 9.168C268.23 9.488 267.206 9.648 266.038 9.648H262.894ZM278.096 14.76L278.384 11.664H286.712L286.976 14.76H278.096ZM282.488 7.368L280.136 12.792L280.328 13.68L278.24 18H273.656L282.488 0.144L291.344 18H286.736L284.72 13.848L284.864 12.816L282.488 7.368Z" fill="white"/>
</svg>
